<svg xmlns="http://www.w3.org/2000/svg" xmlns:xlink="http://www.w3.org/1999/xlink" width="1024px" height="1024px" viewBox="0 0 1024 1024">
    <g id="df514abf-4433-43b6-80ef-e4b038c0f920">
<g style="">
		<g id="df514abf-4433-43b6-80ef-e4b038c0f920-child-0">
<path style="stroke: rgb(193,193,193); stroke-opacity: 1.00; stroke-width: 0; stroke-dasharray: none; stroke-linecap: butt; stroke-dashoffset: 0; stroke-linejoin: miter; stroke-miterlimit: 4; fill: rgb(0,15,18); fill-opacity: 1.00; fill-rule: nonzero; opacity: 1;" transform="matrix(0.750705 0 0 0.750365 512 512) matrix(1 0 0 1 0 0)  translate(-516.75, -496.925)" d="M 245.08 992.25 C 248.14 987.37 264.96 976.75 284.21 967.56 C 306.74 956.79 328.06 948.79 387.50 928.77 C 395.75 925.99 402.65 923.59 402.84 923.44 C 403.21 923.13 404.50 918.01 405.97 911.00 C 406.49 908.53 408.06 901.15 409.46 894.62 C 410.87 888.08 414.08 872.56 416.61 860.13 C 421.74 834.88 427.85 809.49 430.92 800.67 C 434.23 791.15 444.50 779.18 456.23 771.17 C 468.05 763.09 488.38 755.36 504.42 752.86 C 512.96 751.52 529.10 752.26 538.00 754.39 C 555.03 758.46 573.73 768.32 587.74 780.63 C 601.96 793.12 603.88 798.61 617.39 865.50 C 628.83 922.08 628.85 922.15 636.91 925.74 C 639.98 927.11 656.90 933.09 674.50 939.03 C 727.73 956.99 754.16 968.03 772.16 979.82 C 780.24 985.11 788.00 991.63 788.00 993.12 C 788.00 993.63 672.78 994.00 515.99 994.00 C 257.19 994.00 244.04 993.92 245.08 992.25 z M 590.42 750.79 C 582.80 744.42 556.48 732.18 545.00 729.66 C 531.79 726.76 499.50 726.63 487.50 729.43 C 477.68 731.72 459.70 739.65 447.00 747.29 C 437.98 752.71 437.49 752.89 437.21 750.75 C 437.06 749.51 438.54 740.17 440.52 730.00 C 442.49 719.83 447.02 695.97 450.58 677.00 C 458.99 632.14 460.39 625.52 463.62 615.39 C 465.91 608.21 467.16 606.03 471.91 600.97 C 478.65 593.78 486.77 588.82 497.50 585.33 C 504.25 583.13 507.38 582.71 517.50 582.67 C 527.92 582.62 530.44 582.95 536.63 585.17 C 548.53 589.42 563.24 600.79 567.46 609.00 C 569.08 612.16 574.33 634.10 576.90 648.50 C 582.30 678.72 594.17 738.69 595.99 744.99 C 597.21 749.22 597.30 753.70 596.17 754.39 C 595.72 754.67 593.13 753.05 590.42 750.79 z M 156.00 698.75 C 156.02 695.01 171.45 608.75 177.61 578.00 C 186.83 531.95 197.60 502.74 218.18 468.00 C 238.10 434.38 268.32 401.56 302.28 376.65 C 323.68 360.95 355.64 344.01 379.50 335.71 C 391.64 331.48 399.22 329.36 438.87 319.07 C 447.33 316.88 454.52 314.82 454.85 314.49 C 457.17 312.16 446.16 311.69 432.50 313.52 C 430.85 313.74 424.33 314.41 418.00 315.00 C 411.67 315.59 404.48 316.29 402.00 316.55 C 367.01 320.24 338.57 322.43 336.41 321.60 C 335.13 321.11 334.94 320.04 335.42 316.25 C 338.01 296.10 338.16 281.00 335.77 281.00 C 335.22 281.00 326.48 287.23 316.36 294.84 C 295.33 310.65 281.34 319.32 267.56 325.08 C 258.41 328.90 240.35 334.09 231.25 335.51 L 227.00 336.18 L 227.00 332.72 C 227.00 330.81 227.70 322.88 228.56 315.08 C 230.22 300.00 230.18 294.88 228.39 294.29 C 227.78 294.09 223.51 296.95 218.89 300.65 C 195.58 319.32 180.21 329.21 161.68 337.42 C 150.43 342.42 127.97 348.99 122.13 349.00 L 118.77 349.00 L 119.36 343.75 C 119.69 340.86 120.25 332.09 120.62 324.25 C 121.20 311.76 121.09 310.00 119.73 310.00 C 118.88 310.00 113.08 313.68 106.84 318.17 C 75.46 340.77 64.52 347.05 44.58 353.93 C 26.01 360.34 0.00 365.11 0.00 362.11 C 0.00 360.80 29.06 334.60 45.04 321.50 C 47.06 319.85 55.18 313.07 63.10 306.43 C 119.06 259.53 142.36 244.23 181.50 228.71 C 224.67 211.59 253.59 207.01 309.00 208.51 C 336.24 209.26 338.11 209.40 349.50 211.60 C 377.14 216.95 396.62 223.82 443.50 244.78 C 465.35 254.55 468.00 255.58 468.00 254.24 C 468.00 253.35 453.14 242.24 441.54 234.44 C 438.22 232.21 429.02 225.91 421.09 220.44 C 404.71 209.14 397.41 204.13 384.25 195.15 C 379.16 191.67 375.00 188.42 375.00 187.92 C 375.00 187.41 380.29 181.34 386.75 174.43 C 393.21 167.51 399.32 160.54 400.34 158.94 C 403.30 154.26 404.88 154.53 359.50 151.94 C 349.60 151.37 338.12 150.22 334.00 149.37 C 320.81 146.65 286.67 131.91 285.30 128.34 C 284.99 127.54 288.47 122.99 293.64 117.42 C 305.05 105.12 310.00 99.09 310.00 97.47 C 310.00 96.58 307.74 96.00 302.75 95.61 C 298.76 95.31 286.73 94.38 276.00 93.56 C 252.52 91.76 240.32 89.75 229.00 85.80 C 219.43 82.46 197.81 72.13 194.00 69.08 L 191.50 67.08 L 205.25 53.27 C 212.81 45.68 219.00 39.19 219.00 38.85 C 219.00 38.06 212.92 37.34 190.96 35.52 C 161.32 33.07 148.91 30.52 129.79 22.94 C 113.57 16.51 90.00 3.38 90.00 0.77 C 90.00 -0.32 173.72 0.39 238.00 2.02 C 267.85 2.78 271.40 3.06 281.50 5.44 C 319.54 14.43 358.28 30.81 387.08 50.08 C 409.04 64.78 437.55 90.28 454.61 110.50 C 470.34 129.14 481.36 146.94 499.21 182.50 C 514.19 212.34 515.66 214.78 517.56 212.84 C 518.28 212.10 524.33 200.70 531.01 187.50 C 556.56 137.00 569.10 118.92 599.11 89.29 C 618.78 69.86 636.06 56.33 659.50 41.98 C 668.54 36.44 690.32 25.55 698.85 22.30 C 716.96 15.40 731.43 10.71 746.22 6.94 L 762.50 2.78 L 799.00 1.98 C 819.08 1.54 859.79 0.88 889.47 0.51 L 943.45 -0.15 L 941.52 1.98 C 934.41 9.83 898.00 26.85 879.40 31.02 C 871.89 32.71 854.20 34.79 836.50 36.08 C 821.03 37.20 815.99 38.10 816.01 39.73 C 816.01 40.15 820.07 45.22 825.02 51.00 C 836.27 64.13 839.39 68.56 838.46 70.07 C 837.32 71.90 818.62 80.52 807.50 84.33 C 788.87 90.71 773.13 93.27 742.09 94.98 C 731.96 95.53 723.49 96.18 723.25 96.42 C 722.00 97.67 725.24 101.99 736.88 114.59 C 751.86 130.82 752.28 128.32 733.14 137.01 C 706.46 149.12 693.84 151.62 650.00 153.46 C 642.58 153.77 635.49 154.30 634.25 154.63 C 629.57 155.89 631.39 158.73 649.79 178.78 C 657.85 187.57 658.20 188.14 656.40 189.50 C 653.46 191.73 630.19 207.92 613.00 219.69 C 596.60 230.91 570.20 249.61 566.00 252.96 C 564.62 254.06 563.95 254.96 564.50 254.97 C 565.86 255.00 584.29 247.27 596.50 241.55 C 614.75 233.01 634.31 225.24 650.50 220.11 C 682.34 210.00 695.56 208.44 748.00 208.57 C 780.00 208.65 788.63 209.49 808.00 214.43 C 854.18 226.19 897.06 247.38 933.37 276.39 C 957.10 295.34 1010.38 340.92 1024.50 354.34 L 1033.50 362.90 L 1029.93 362.95 C 1024.30 363.03 1008.62 360.07 995.28 356.42 C 974.41 350.70 954.33 339.97 933.60 323.45 C 922.87 314.90 914.38 309.00 912.80 309.00 C 912.36 309.00 912.00 317.77 912.00 328.50 L 912.00 348.00 L 907.25 348.00 C 901.75 348.00 886.82 344.10 876.27 339.91 C 859.17 333.11 842.05 322.77 823.50 308.00 C 812.56 299.30 806.33 295.01 804.59 295.00 C 803.63 295.00 804.48 324.62 805.64 331.41 L 806.31 335.32 L 799.41 334.73 C 789.81 333.91 770.59 327.89 757.50 321.60 C 743.98 315.11 725.78 302.98 712.54 291.64 C 701.42 282.12 698.85 280.46 696.57 281.34 C 694.66 282.07 694.60 285.03 696.12 304.78 C 697.48 322.40 697.55 322.27 686.57 321.45 C 675.18 320.60 657.61 319.05 641.50 317.47 C 621.83 315.55 588.63 313.00 583.25 313.00 C 580.91 313.00 579.00 313.38 579.00 313.85 C 579.00 314.89 587.24 317.31 613.50 324.00 C 657.56 335.21 687.80 348.03 718.62 368.57 C 764.01 398.81 797.29 434.89 822.77 481.50 C 843.84 520.03 850.21 543.96 870.44 660.50 C 877.97 703.83 877.88 704.65 866.95 692.97 C 845.55 670.11 831.19 640.61 823.55 603.79 C 819.74 585.39 818.24 580.81 816.19 581.19 C 815.26 581.37 809.68 588.25 803.79 596.49 C 797.90 604.73 792.67 611.61 792.18 611.77 C 791.69 611.94 788.82 609.02 785.81 605.29 C 768.10 583.33 759.09 563.20 750.06 525.50 C 744.54 502.42 744.10 501.00 742.47 501.00 C 741.10 501.00 731.81 512.69 729.05 517.89 C 728.35 519.21 725.97 522.25 723.76 524.64 C 717.58 531.35 714.78 530.60 707.21 520.19 C 692.84 500.43 684.23 478.78 676.07 441.88 C 673.83 431.77 671.76 422.42 671.45 421.11 L 670.89 418.71 L 667.46 422.04 C 665.57 423.87 660.43 430.35 656.03 436.43 C 646.78 449.25 644.50 452.03 643.34 451.92 C 642.88 451.88 627.42 435.63 609.00 415.81 C 571.03 374.96 536.26 339.00 534.74 339.00 C 533.31 339.00 534.54 365.00 537.02 387.41 C 539.50 409.87 539.68 425.80 537.45 426.66 C 536.60 426.98 531.09 426.68 525.20 425.98 C 515.89 424.88 513.25 424.93 504.88 426.36 C 499.58 427.26 494.68 428.00 493.98 428.00 C 493.01 428.00 492.86 426.18 493.35 420.25 C 493.70 415.99 494.46 405.75 495.03 397.50 C 495.60 389.25 496.95 373.75 498.03 363.06 C 499.12 352.37 500.00 342.81 500.00 341.81 C 500.00 338.09 496.48 340.27 487.22 349.75 C 472.30 365.03 435.58 403.36 412.00 428.27 C 400.17 440.77 389.96 450.99 389.30 450.99 C 388.64 451.00 383.72 445.26 378.38 438.25 C 367.95 424.56 364.07 420.00 362.86 420.00 C 361.83 420.00 360.63 424.46 356.41 443.94 C 350.45 471.48 343.18 491.16 332.12 509.66 C 326.15 519.64 317.04 531.50 315.34 531.50 C 314.75 531.50 309.37 525.01 303.38 517.08 C 297.40 509.14 291.72 502.18 290.78 501.60 C 288.05 499.93 287.10 501.79 285.45 512.07 C 279.90 546.57 267.77 577.56 251.11 599.75 C 246.05 606.49 241.52 612.00 241.03 612.00 C 240.00 612.00 238.85 610.56 226.94 594.31 C 222.02 587.60 217.50 581.81 216.89 581.43 C 215.17 580.37 214.28 582.58 211.50 594.99 C 207.32 613.59 204.95 622.91 202.34 630.94 C 194.64 654.62 182.68 674.77 165.62 692.75 C 159.11 699.61 155.99 701.56 156.00 698.75 z M 472.30 567.25 C 472.62 564.64 474.04 553.50 475.46 542.50 C 476.88 531.50 478.25 520.92 478.49 519.00 C 482.73 485.59 485.09 470.09 487.05 462.82 C 488.41 457.77 492.47 453.30 499.61 449.00 C 505.27 445.59 505.69 445.50 515.96 445.50 C 525.45 445.50 527.00 445.76 531.50 448.16 C 537.55 451.38 540.24 453.83 543.65 459.24 C 546.92 464.42 550.32 484.62 556.00 532.63 C 560.00 566.39 560.49 572.00 559.45 572.00 C 559.15 572.00 553.42 569.53 546.73 566.50 L 534.57 561.00 C 534.57 561.00 522.74 558.58 516.75 558.56 C 510.67 558.55 498.34 561.00 498.34 561.00 L 486.09 566.50 C 479.35 569.53 473.36 572.00 472.78 572.00 C 472.10 572.00 471.93 570.29 472.30 567.25 z" stroke-linecap="round"></path>
</g>
</g>
</g>

  </svg>